<svg id="Capa_1" enable-background="new 0 0 512.003 512.003" height="512" viewBox="0 0 512.003 512.003" width="512" xmlns="http://www.w3.org/2000/svg"><g><path d="m119.002 327c8.284 0 15-6.716 15-15s-6.716-15-15-15c-49.075 0-89-39.925-89-89 0-58.441 55.383-100.998 111.86-86.034 8.487 2.247 17.093-3.249 18.615-11.901 8.159-46.393 48.333-80.065 95.525-80.065 42.843 0 79.899 27.755 92.47 67.585-14.654 5.907-28.107 14.761-39.616 26.27-5.858 5.858-5.858 15.355 0 21.213 5.857 5.858 15.355 5.858 21.213 0 24.986-24.987 61.266-32.065 92.607-21.015 34.53 12.307 59.326 44.988 59.326 83.948 0 49.075-39.925 89-89 89-8.284 0-15 6.716-15 15s6.716 15 15 15c65.617 0 119-53.383 119-119 0-72.879-64.392-127.342-134.474-118.023-16.011-52.949-64.913-89.978-121.526-89.978-56.614 0-105.516 37.028-121.527 89.977-69.914-9.297-134.473 45.003-134.473 118.023 0 65.617 53.383 119 119 119z"/><path d="m332.002 231c-4.972-6.627-14.372-7.97-21-3l-40 30v-82c0-8.284-6.716-15-15-15s-15 6.716-15 15v82l-40-30c-6.626-4.971-16.029-3.627-21 3s-3.627 16.029 3 21l64 48c4.991 3.741 11.886 4.018 17.182.563.797-.521-2.625 2.02 64.818-48.563 6.627-4.971 7.97-14.373 3-21z"/><path d="m311.002 308-55 41.25-55-41.25c-6.626-4.971-16.029-3.627-21 3s-3.627 16.029 3 21l64 48c5.333 4 12.666 4 18 0l64-48c6.627-4.971 7.971-14.373 3-21-4.972-6.627-14.372-7.97-21-3z"/><path d="m472.002 449h-171.469c-6.276-18.58-23.86-32-44.531-32s-38.255 13.42-44.531 32h-171.469c-8.284 0-15 6.716-15 15s6.716 15 15 15h171.405c2.243 6.834 6.007 13.154 11.139 18.508 25.208 26.294 67.104 14.849 78.051-18.508h171.405c8.284 0 15-6.716 15-15s-6.716-15-15-15zm-216 33c-9.056 0-17-8.411-17-18 0-9.374 7.626-17 17-17s17 7.626 17 17c0 9.589-7.945 18-17 18z"/></g></svg>